# xmcd
#
# Track frame offsets:
#	150
#	12350
#	26825
#	44190
#	60824
#	76929
#	98899
#	111617
#	129446
#	149560
#	162463
#	175427
#	189644
#	204105
#
# Disc length: 2929 seconds
#
# Revision: 0
# Processed by: cddbd v1.5.1PL0 Copyright (c) Steve Scherf et al.
# Submitted via: EasyCDDAExtractor 8.0.2.1
#
DISCID=c80b6f0e
DTITLE=Alice Cooper - Morris Performing Arts Center South Bend 04-10-05 Disc 1
DYEAR=2005
DGENRE=Hard Rock
TTITLE0=Department Of Youth
TTITLE1=No More Mr Nice Guy
TTITLE2=Dirty Diamonds
TTITLE3=Billion Dollar Babies
TTITLE4=Be My Lover
TTITLE5=Lost In America
TTITLE6=I Never Cry
TTITLE7=Woman Of Mass Distraction
TTITLE8=Eighteen
TTITLE9=Between High School And Old School
TTITLE10=Sunset Babies (All Got Rabies)
TTITLE11=Is It My Body
TTITLE12=Go To Hell
TTITLE13=Black Widow (Instrumental) With Start Of Drum Solo
EXTD=
EXTT0=
EXTT1=
EXTT2=
EXTT3=
EXTT4=
EXTT5=
EXTT6=
EXTT7=
EXTT8=
EXTT9=
EXTT10=
EXTT11=
EXTT12=
EXTT13=
PLAYORDER=
